<?xml version="1.0" encoding="utf-8" standalone="no"?>
<!DOCTYPE svg PUBLIC "-//W3C//DTD SVG 1.1//EN"
  "http://www.w3.org/Graphics/SVG/1.1/DTD/svg11.dtd">
<svg xmlns:xlink="http://www.w3.org/1999/xlink" width="720pt" height="504pt" viewBox="0 0 720 504" xmlns="http://www.w3.org/2000/svg" version="1.1">
 <metadata>
  <rdf:RDF xmlns:dc="http://purl.org/dc/elements/1.1/" xmlns:cc="http://creativecommons.org/ns#" xmlns:rdf="http://www.w3.org/1999/02/22-rdf-syntax-ns#">
   <cc:Work>
    <dc:type rdf:resource="http://purl.org/dc/dcmitype/StillImage"/>
    <dc:date>2023-11-26T13:52:26.210078</dc:date>
    <dc:format>image/svg+xml</dc:format>
    <dc:creator>
     <cc:Agent>
      <dc:title>Matplotlib v3.7.0, https://matplotlib.org/</dc:title>
     </cc:Agent>
    </dc:creator>
   </cc:Work>
  </rdf:RDF>
 </metadata>
 <defs>
  <style type="text/css">*{stroke-linejoin: round; stroke-linecap: butt}</style>
 </defs>
 <g id="figure_1">
  <g id="patch_1">
   <path d="M 0 504 
L 720 504 
L 720 0 
L 0 0 
z
" style="fill: #ffffff"/>
  </g>
  <g id="axes_1">
   <g id="patch_2">
    <path d="M 90 448.56 
L 648 448.56 
L 648 60.48 
L 90 60.48 
z
" style="fill: #ffffff"/>
   </g>
   <g id="PolyCollection_1">
    <path d="M -60.818957 444.454001 
L -60.818957 448.56 
L -56.499169 448.56 
L -52.17938 448.56 
L -47.859592 448.56 
L -43.539803 448.56 
L -39.220014 448.56 
L -34.900226 448.56 
L -30.580437 448.56 
L -26.260649 448.56 
L -21.94086 448.56 
L -17.621072 448.56 
L -13.301283 448.56 
L -8.981495 448.56 
L -4.661706 448.56 
L -0.341918 448.56 
L 3.977871 448.56 
L 8.297659 448.56 
L 12.617448 448.56 
L 16.937236 448.56 
L 21.257025 448.56 
L 25.576813 448.56 
L 29.896602 448.56 
L 34.21639 448.56 
L 38.536179 448.56 
L 42.855967 448.56 
L 47.175756 448.56 
L 51.495544 448.56 
L 55.815333 448.56 
L 60.135121 448.56 
L 64.45491 448.56 
L 68.774698 448.56 
L 73.094487 448.56 
L 77.414275 448.56 
L 81.734064 448.56 
L 86.053852 448.56 
L 90.373641 448.56 
L 94.693429 448.56 
L 99.013218 448.56 
L 103.333006 448.56 
L 107.652795 448.56 
L 111.972583 448.56 
L 116.292372 448.56 
L 120.61216 448.56 
L 124.931949 448.56 
L 129.251738 448.56 
L 133.571526 448.56 
L 137.891315 448.56 
L 142.211103 448.56 
L 146.530892 448.56 
L 150.85068 448.56 
L 155.170469 448.56 
L 159.490257 448.56 
L 163.810046 448.56 
L 168.129834 448.56 
L 172.449623 448.56 
L 176.769411 448.56 
L 181.0892 448.56 
L 185.408988 448.56 
L 189.728777 448.56 
L 194.048565 448.56 
L 198.368354 448.56 
L 202.688142 448.56 
L 207.007931 448.56 
L 211.327719 448.56 
L 215.647508 448.56 
L 219.967296 448.56 
L 224.287085 448.56 
L 228.606873 448.56 
L 232.926662 448.56 
L 237.24645 448.56 
L 241.566239 448.56 
L 245.886027 448.56 
L 250.205816 448.56 
L 254.525604 448.56 
L 258.845393 448.56 
L 263.165181 448.56 
L 267.48497 448.56 
L 271.804758 448.56 
L 276.124547 448.56 
L 280.444335 448.56 
L 284.764124 448.56 
L 289.083913 448.56 
L 293.403701 448.56 
L 297.72349 448.56 
L 302.043278 448.56 
L 306.363067 448.56 
L 310.682855 448.56 
L 315.002644 448.56 
L 319.322432 448.56 
L 323.642221 448.56 
L 327.962009 448.56 
L 332.281798 448.56 
L 336.601586 448.56 
L 340.921375 448.56 
L 345.241163 448.56 
L 349.560952 448.56 
L 353.88074 448.56 
L 358.200529 448.56 
L 362.520317 448.56 
L 366.840106 448.56 
L 371.159894 448.56 
L 375.479683 448.56 
L 379.799471 448.56 
L 384.11926 448.56 
L 388.439048 448.56 
L 392.758837 448.56 
L 397.078625 448.56 
L 401.398414 448.56 
L 405.718202 448.56 
L 410.037991 448.56 
L 414.357779 448.56 
L 418.677568 448.56 
L 422.997356 448.56 
L 427.317145 448.56 
L 431.636933 448.56 
L 435.956722 448.56 
L 440.27651 448.56 
L 444.596299 448.56 
L 448.916087 448.56 
L 453.235876 448.56 
L 457.555665 448.56 
L 461.875453 448.56 
L 466.195242 448.56 
L 470.51503 448.56 
L 474.834819 448.56 
L 479.154607 448.56 
L 483.474396 448.56 
L 487.794184 448.56 
L 492.113973 448.56 
L 496.433761 448.56 
L 500.75355 448.56 
L 505.073338 448.56 
L 509.393127 448.56 
L 513.712915 448.56 
L 518.032704 448.56 
L 522.352492 448.56 
L 526.672281 448.56 
L 530.992069 448.56 
L 535.311858 448.56 
L 539.631646 448.56 
L 543.951435 448.56 
L 548.271223 448.56 
L 552.591012 448.56 
L 556.9108 448.56 
L 561.230589 448.56 
L 565.550377 448.56 
L 569.870166 448.56 
L 574.189954 448.56 
L 578.509743 448.56 
L 582.829531 448.56 
L 587.14932 448.56 
L 591.469108 448.56 
L 595.788897 448.56 
L 600.108685 448.56 
L 604.428474 448.56 
L 608.748262 448.56 
L 613.068051 448.56 
L 617.38784 448.56 
L 621.707628 448.56 
L 626.027417 448.56 
L 630.347205 448.56 
L 634.666994 448.56 
L 638.986782 448.56 
L 643.306571 448.56 
L 647.626359 448.56 
L 651.946148 448.56 
L 656.265936 448.56 
L 660.585725 448.56 
L 664.905513 448.56 
L 669.225302 448.56 
L 673.54509 448.56 
L 677.864879 448.56 
L 682.184667 448.56 
L 686.504456 448.56 
L 690.824244 448.56 
L 695.144033 448.56 
L 699.463821 448.56 
L 703.78361 448.56 
L 708.103398 448.56 
L 712.423187 448.56 
L 716.742975 448.56 
L 721.062764 448.56 
L 725.382552 448.56 
L 729.702341 448.56 
L 734.022129 448.56 
L 738.341918 448.56 
L 742.661706 448.56 
L 746.981495 448.56 
L 751.301283 448.56 
L 755.621072 448.56 
L 759.94086 448.56 
L 764.260649 448.56 
L 768.580437 448.56 
L 772.900226 448.56 
L 777.220014 448.56 
L 781.539803 448.56 
L 785.859592 448.56 
L 790.17938 448.56 
L 794.499169 448.56 
L 798.818957 448.56 
L 798.818957 446.745604 
L 798.818957 446.745604 
L 794.499169 446.220725 
L 790.17938 445.566193 
L 785.859592 444.756707 
L 781.539803 443.76389 
L 777.220014 442.556397 
L 772.900226 441.100181 
L 768.580437 439.358937 
L 764.260649 437.294741 
L 759.94086 434.868918 
L 755.621072 432.043128 
L 751.301283 428.780684 
L 746.981495 425.048076 
L 742.661706 420.816675 
L 738.341918 416.06457 
L 734.022129 410.778474 
L 729.702341 404.955617 
L 725.382552 398.605545 
L 721.062764 391.751706 
L 716.742975 384.432737 
L 712.423187 376.703329 
L 708.103398 368.634581 
L 703.78361 360.313765 
L 699.463821 351.843431 
L 695.144033 343.339826 
L 690.824244 334.930633 
L 686.504456 326.752061 
L 682.184667 318.945366 
L 677.864879 311.652918 
L 673.54509 305.013956 
L 669.225302 299.160213 
L 664.905513 294.211588 
L 660.585725 290.272075 
L 656.265936 287.426127 
L 651.946148 285.735655 
L 647.626359 285.237782 
L 643.306571 285.943491 
L 638.986782 287.83722 
L 634.666994 290.877436 
L 630.347205 294.998146 
L 626.027417 300.111281 
L 621.707628 306.109821 
L 617.38784 312.871519 
L 613.068051 320.26303 
L 608.748262 328.144262 
L 604.428474 336.37274 
L 600.108685 344.807812 
L 595.788897 353.314509 
L 591.469108 361.766936 
L 587.14932 370.051071 
L 582.829531 378.066914 
L 578.509743 385.729947 
L 574.189954 392.971908 
L 569.870166 399.740925 
L 565.550377 406.001065 
L 561.230589 411.731384 
L 556.9108 416.924589 
L 552.591012 421.5854 
L 548.271223 425.728736 
L 543.951435 429.377803 
L 539.631646 432.562203 
L 535.311858 435.316114 
L 530.992069 437.676611 
L 526.672281 439.682181 
L 522.352492 441.371441 
L 518.032704 442.782089 
L 513.712915 443.950081 
L 509.393127 444.909022 
L 505.073338 445.689758 
L 500.75355 446.320138 
L 496.433761 446.824928 
L 492.113973 447.225843 
L 487.794184 447.541666 
L 483.474396 447.788446 
L 479.154607 447.979721 
L 474.834819 448.126789 
L 470.51503 448.238962 
L 466.195242 448.32384 
L 461.875453 448.387555 
L 457.555665 448.435006 
L 453.235876 448.470067 
L 448.916087 448.495769 
L 444.596299 448.514463 
L 440.27651 448.527954 
L 435.956722 448.537614 
L 431.636933 448.544477 
L 427.317145 448.549315 
L 422.997356 448.552699 
L 418.677568 448.555048 
L 414.357779 448.556666 
L 410.037991 448.557772 
L 405.718202 448.558521 
L 401.398414 448.559025 
L 397.078625 448.559361 
L 392.758837 448.559582 
L 388.439048 448.559726 
L 384.11926 448.559816 
L 379.799471 448.55987 
L 375.479683 448.559895 
L 371.159894 448.559898 
L 366.840106 448.559877 
L 362.520317 448.55983 
L 358.200529 448.559746 
L 353.88074 448.559609 
L 349.560952 448.559395 
L 345.241163 448.559064 
L 340.921375 448.558559 
L 336.601586 448.557797 
L 332.281798 448.556655 
L 327.962009 448.554958 
L 323.642221 448.552456 
L 319.322432 448.548795 
L 315.002644 448.543479 
L 310.682855 448.53582 
L 306.363067 448.524872 
L 302.043278 448.50934 
L 297.72349 448.48748 
L 293.403701 448.45695 
L 289.083913 448.414645 
L 284.764124 448.356481 
L 280.444335 448.277138 
L 276.124547 448.169755 
L 271.804758 448.025567 
L 267.48497 447.833487 
L 263.165181 447.579638 
L 258.845393 447.246823 
L 254.525604 446.813964 
L 250.205816 446.2555 
L 245.886027 445.540787 
L 241.566239 444.633513 
L 237.24645 443.491168 
L 232.926662 442.064611 
L 228.606873 440.297797 
L 224.287085 438.127702 
L 219.967296 435.484523 
L 215.647508 432.292211 
L 211.327719 428.469397 
L 207.007931 423.93077 
L 202.688142 418.588938 
L 198.368354 412.356807 
L 194.048565 405.150474 
L 189.728777 396.892594 
L 185.408988 387.51618 
L 181.0892 376.968711 
L 176.769411 365.21643 
L 172.449623 352.248655 
L 168.129834 338.08189 
L 163.810046 322.763528 
L 159.490257 306.374889 
L 155.170469 289.03336 
L 150.85068 270.893417 
L 146.530892 252.146327 
L 142.211103 233.018391 
L 137.891315 213.767641 
L 133.571526 194.67898 
L 129.251738 176.057842 
L 124.931949 158.222527 
L 120.61216 141.495454 
L 116.292372 126.193655 
L 111.972583 112.618892 
L 107.652795 101.047812 
L 103.333006 91.722599 
L 99.013218 84.842557 
L 94.693429 80.557026 
L 90.373641 78.96 
L 86.053852 80.086692 
L 81.734064 83.912249 
L 77.414275 90.35266 
L 73.094487 99.267823 
L 68.774698 110.466615 
L 64.45491 123.713701 
L 60.135121 138.737746 
L 55.815333 155.240639 
L 51.495544 172.907276 
L 47.175756 191.415475 
L 42.855967 210.445572 
L 38.536179 229.689326 
L 34.21639 248.857787 
L 29.896602 267.687886 
L 25.576813 285.947552 
L 21.257025 303.439289 
L 16.937236 320.002197 
L 12.617448 335.512511 
L 8.297659 349.882795 
L 3.977871 363.059985 
L -0.341918 375.02248 
L -4.661706 385.776546 
L -8.981495 395.352254 
L -13.301283 403.799188 
L -17.621072 411.182135 
L -21.94086 417.576929 
L -26.260649 423.066594 
L -30.580437 427.737892 
L -34.900226 431.678347 
L -39.220014 434.973778 
L -43.539803 437.706349 
L -47.859592 439.953107 
L -52.17938 441.784982 
L -56.499169 443.266196 
L -60.818957 444.454001 
z
" clip-path="url(#pa5ae44e0bb)" style="fill: #008000; fill-opacity: 0.8; stroke: #008000"/>
   </g>
   <g id="matplotlib.axis_1">
    <g id="xtick_1">
     <g id="line2d_1">
      <defs>
       <path id="m52e393580b" d="M 0 0 
L 0 3.5 
" style="stroke: #000000; stroke-width: 0.8"/>
      </defs>
      <g>
       <use xlink:href="#m52e393580b" x="90" y="448.56" style="stroke: #000000; stroke-width: 0.8"/>
      </g>
     </g>
     <g id="text_1">
      <!-- 0.0 -->
      <g transform="translate(80.625 465.492813) scale(0.15 -0.15)">
       <defs>
        <path id="TimesNewRomanPS-BoldMT-30" d="M 2966 2119 
Q 2966 1484 2788 934 
Q 2681 597 2501 381 
Q 2322 166 2094 39 
Q 1866 -88 1597 -88 
Q 1291 -88 1044 68 
Q 797 225 606 516 
Q 469 728 366 1081 
Q 231 1559 231 2069 
Q 231 2759 425 3338 
Q 584 3816 909 4070 
Q 1234 4325 1597 4325 
Q 1966 4325 2286 4073 
Q 2606 3822 2756 3397 
Q 2966 2813 2966 2119 
z
M 2003 2125 
Q 2003 3238 1991 3422 
Q 1959 3856 1841 4009 
Q 1763 4109 1588 4109 
Q 1453 4109 1375 4034 
Q 1259 3925 1218 3648 
Q 1178 3372 1178 1719 
Q 1178 819 1241 513 
Q 1288 291 1375 216 
Q 1463 141 1606 141 
Q 1763 141 1841 241 
Q 1972 416 1991 781 
L 2003 2125 
z
" transform="scale(0.015625)"/>
        <path id="TimesNewRomanPS-BoldMT-2e" d="M 800 963 
Q 1019 963 1170 809 
Q 1322 656 1322 441 
Q 1322 225 1169 73 
Q 1016 -78 800 -78 
Q 584 -78 432 73 
Q 281 225 281 441 
Q 281 656 432 809 
Q 584 963 800 963 
z
" transform="scale(0.015625)"/>
       </defs>
       <use xlink:href="#TimesNewRomanPS-BoldMT-30"/>
       <use xlink:href="#TimesNewRomanPS-BoldMT-2e" x="50"/>
       <use xlink:href="#TimesNewRomanPS-BoldMT-30" x="75"/>
      </g>
     </g>
    </g>
    <g id="xtick_2">
     <g id="line2d_2">
      <g>
       <use xlink:href="#m52e393580b" x="201.6" y="448.56" style="stroke: #000000; stroke-width: 0.8"/>
      </g>
     </g>
     <g id="text_2">
      <!-- 0.2 -->
      <g transform="translate(192.225 465.492813) scale(0.15 -0.15)">
       <defs>
        <path id="TimesNewRomanPS-BoldMT-32" d="M 2650 0 
L 156 0 
L 156 69 
Q 1303 1434 1548 1906 
Q 1794 2378 1794 2828 
Q 1794 3156 1591 3373 
Q 1388 3591 1094 3591 
Q 613 3591 347 3109 
L 231 3150 
Q 400 3750 744 4037 
Q 1088 4325 1538 4325 
Q 1859 4325 2125 4175 
Q 2391 4025 2541 3764 
Q 2691 3503 2691 3275 
Q 2691 2859 2459 2431 
Q 2144 1853 1081 819 
L 1997 819 
Q 2334 819 2436 847 
Q 2538 875 2603 942 
Q 2669 1009 2775 1225 
L 2888 1225 
L 2650 0 
z
" transform="scale(0.015625)"/>
       </defs>
       <use xlink:href="#TimesNewRomanPS-BoldMT-30"/>
       <use xlink:href="#TimesNewRomanPS-BoldMT-2e" x="50"/>
       <use xlink:href="#TimesNewRomanPS-BoldMT-32" x="75"/>
      </g>
     </g>
    </g>
    <g id="xtick_3">
     <g id="line2d_3">
      <g>
       <use xlink:href="#m52e393580b" x="313.2" y="448.56" style="stroke: #000000; stroke-width: 0.8"/>
      </g>
     </g>
     <g id="text_3">
      <!-- 0.4 -->
      <g transform="translate(303.825 465.492813) scale(0.15 -0.15)">
       <defs>
        <path id="TimesNewRomanPS-BoldMT-34" d="M 159 1597 
L 2172 4325 
L 2553 4325 
L 2553 1597 
L 2941 1597 
L 2941 950 
L 2553 950 
L 2553 0 
L 1694 0 
L 1694 950 
L 159 950 
L 159 1597 
z
M 463 1597 
L 1694 1597 
L 1694 3269 
L 463 1597 
z
" transform="scale(0.015625)"/>
       </defs>
       <use xlink:href="#TimesNewRomanPS-BoldMT-30"/>
       <use xlink:href="#TimesNewRomanPS-BoldMT-2e" x="50"/>
       <use xlink:href="#TimesNewRomanPS-BoldMT-34" x="75"/>
      </g>
     </g>
    </g>
    <g id="xtick_4">
     <g id="line2d_4">
      <g>
       <use xlink:href="#m52e393580b" x="424.8" y="448.56" style="stroke: #000000; stroke-width: 0.8"/>
      </g>
     </g>
     <g id="text_4">
      <!-- 0.6 -->
      <g transform="translate(415.425 465.492813) scale(0.15 -0.15)">
       <defs>
        <path id="TimesNewRomanPS-BoldMT-36" d="M 3006 4325 
L 3006 4238 
Q 2441 4094 2098 3867 
Q 1756 3641 1557 3317 
Q 1359 2994 1250 2516 
Q 1388 2609 1478 2638 
Q 1681 2700 1888 2700 
Q 2363 2700 2680 2354 
Q 2997 2009 2997 1413 
Q 2997 994 2825 644 
Q 2653 294 2337 103 
Q 2022 -88 1663 -88 
Q 1272 -88 940 126 
Q 609 341 423 753 
Q 238 1166 238 1650 
Q 238 2363 580 2977 
Q 922 3591 1551 3955 
Q 2181 4319 3006 4325 
z
M 1209 2263 
Q 1184 1831 1184 1631 
Q 1184 1200 1267 797 
Q 1350 394 1494 231 
Q 1597 116 1738 116 
Q 1881 116 1993 283 
Q 2106 450 2106 963 
Q 2106 1825 1897 2153 
Q 1763 2366 1534 2366 
Q 1409 2366 1209 2263 
z
" transform="scale(0.015625)"/>
       </defs>
       <use xlink:href="#TimesNewRomanPS-BoldMT-30"/>
       <use xlink:href="#TimesNewRomanPS-BoldMT-2e" x="50"/>
       <use xlink:href="#TimesNewRomanPS-BoldMT-36" x="75"/>
      </g>
     </g>
    </g>
    <g id="xtick_5">
     <g id="line2d_5">
      <g>
       <use xlink:href="#m52e393580b" x="536.4" y="448.56" style="stroke: #000000; stroke-width: 0.8"/>
      </g>
     </g>
     <g id="text_5">
      <!-- 0.8 -->
      <g transform="translate(527.025 465.492813) scale(0.15 -0.15)">
       <defs>
        <path id="TimesNewRomanPS-BoldMT-38" d="M 2181 2394 
Q 2628 2066 2801 1783 
Q 2975 1500 2975 1134 
Q 2975 622 2589 267 
Q 2203 -88 1541 -88 
Q 913 -88 569 221 
Q 225 531 225 978 
Q 225 1319 423 1575 
Q 622 1831 1084 2044 
Q 581 2428 439 2672 
Q 297 2916 297 3238 
Q 297 3663 658 3986 
Q 1019 4309 1647 4309 
Q 2253 4309 2579 4023 
Q 2906 3738 2906 3338 
Q 2906 3038 2729 2808 
Q 2553 2578 2181 2394 
z
M 1944 2553 
Q 2059 2709 2115 2903 
Q 2172 3097 2172 3328 
Q 2172 3734 1997 3950 
Q 1866 4116 1634 4116 
Q 1425 4116 1278 3964 
Q 1131 3813 1131 3588 
Q 1131 3359 1295 3114 
Q 1459 2869 1944 2553 
z
M 1319 1894 
Q 1222 1806 1181 1734 
Q 1119 1625 1069 1415 
Q 1019 1206 1019 978 
Q 1019 684 1094 486 
Q 1169 288 1308 200 
Q 1447 113 1594 113 
Q 1822 113 1978 280 
Q 2134 447 2134 738 
Q 2134 1344 1319 1894 
z
" transform="scale(0.015625)"/>
       </defs>
       <use xlink:href="#TimesNewRomanPS-BoldMT-30"/>
       <use xlink:href="#TimesNewRomanPS-BoldMT-2e" x="50"/>
       <use xlink:href="#TimesNewRomanPS-BoldMT-38" x="75"/>
      </g>
     </g>
    </g>
    <g id="xtick_6">
     <g id="line2d_6">
      <g>
       <use xlink:href="#m52e393580b" x="648" y="448.56" style="stroke: #000000; stroke-width: 0.8"/>
      </g>
     </g>
     <g id="text_6">
      <!-- 1.0 -->
      <g transform="translate(638.625 465.492813) scale(0.15 -0.15)">
       <defs>
        <path id="TimesNewRomanPS-BoldMT-31" d="M 2084 4325 
L 2084 859 
Q 2084 469 2118 361 
Q 2153 253 2262 184 
Q 2372 116 2613 116 
L 2709 116 
L 2709 0 
L 478 0 
L 478 116 
L 591 116 
Q 863 116 978 178 
Q 1094 241 1134 350 
Q 1175 459 1175 859 
L 1175 3056 
Q 1175 3350 1147 3423 
Q 1119 3497 1042 3548 
Q 966 3600 866 3600 
Q 706 3600 478 3500 
L 422 3613 
L 1981 4325 
L 2084 4325 
z
" transform="scale(0.015625)"/>
       </defs>
       <use xlink:href="#TimesNewRomanPS-BoldMT-31"/>
       <use xlink:href="#TimesNewRomanPS-BoldMT-2e" x="50"/>
       <use xlink:href="#TimesNewRomanPS-BoldMT-30" x="75"/>
      </g>
     </g>
    </g>
    <g id="text_7">
     <!-- Node-Level Homophily Ratio -->
     <g transform="translate(244.00625 486.257656) scale(0.2 -0.2)">
      <defs>
       <path id="TimesNewRomanPS-BoldMT-4e" d="M 1594 4238 
L 3684 1609 
L 3684 3431 
Q 3684 3813 3575 3947 
Q 3425 4128 3072 4122 
L 3072 4238 
L 4472 4238 
L 4472 4122 
Q 4203 4088 4111 4033 
Q 4019 3978 3967 3854 
Q 3916 3731 3916 3431 
L 3916 -97 
L 3809 -97 
L 944 3431 
L 944 738 
Q 944 372 1111 244 
Q 1278 116 1494 116 
L 1594 116 
L 1594 0 
L 91 0 
L 91 116 
Q 441 119 578 259 
Q 716 400 716 738 
L 716 3728 
L 625 3841 
Q 491 4009 387 4062 
Q 284 4116 91 4122 
L 91 4238 
L 1594 4238 
z
" transform="scale(0.015625)"/>
       <path id="TimesNewRomanPS-BoldMT-6f" d="M 1594 3009 
Q 1975 3009 2303 2812 
Q 2631 2616 2801 2253 
Q 2972 1891 2972 1459 
Q 2972 838 2656 419 
Q 2275 -88 1603 -88 
Q 944 -88 587 375 
Q 231 838 231 1447 
Q 231 2075 595 2542 
Q 959 3009 1594 3009 
z
M 1606 2788 
Q 1447 2788 1333 2667 
Q 1219 2547 1183 2192 
Q 1147 1838 1147 1206 
Q 1147 872 1191 581 
Q 1225 359 1337 243 
Q 1450 128 1594 128 
Q 1734 128 1828 206 
Q 1950 313 1991 503 
Q 2053 800 2053 1703 
Q 2053 2234 1993 2432 
Q 1934 2631 1819 2722 
Q 1738 2788 1606 2788 
z
" transform="scale(0.015625)"/>
       <path id="TimesNewRomanPS-BoldMT-64" d="M 3056 4238 
L 3056 875 
Q 3056 534 3075 472 
Q 3100 369 3170 319 
Q 3241 269 3416 256 
L 3416 153 
L 2181 -88 
L 2181 375 
Q 1959 106 1786 9 
Q 1613 -88 1394 -88 
Q 834 -88 509 413 
Q 247 819 247 1409 
Q 247 1881 409 2254 
Q 572 2628 855 2818 
Q 1138 3009 1463 3009 
Q 1672 3009 1834 2928 
Q 1997 2847 2181 2644 
L 2181 3525 
Q 2181 3859 2153 3928 
Q 2116 4019 2041 4062 
Q 1966 4106 1759 4106 
L 1759 4238 
L 3056 4238 
z
M 2181 2256 
Q 1950 2700 1616 2700 
Q 1500 2700 1425 2638 
Q 1309 2541 1236 2297 
Q 1163 2053 1163 1550 
Q 1163 997 1244 731 
Q 1325 466 1466 347 
Q 1538 288 1663 288 
Q 1938 288 2181 719 
L 2181 2256 
z
" transform="scale(0.015625)"/>
       <path id="TimesNewRomanPS-BoldMT-65" d="M 2691 1566 
L 1088 1566 
Q 1116 984 1397 647 
Q 1613 388 1916 388 
Q 2103 388 2256 492 
Q 2409 597 2584 869 
L 2691 800 
Q 2453 316 2165 114 
Q 1878 -88 1500 -88 
Q 850 -88 516 413 
Q 247 816 247 1413 
Q 247 2144 642 2576 
Q 1038 3009 1569 3009 
Q 2013 3009 2339 2645 
Q 2666 2281 2691 1566 
z
M 1922 1775 
Q 1922 2278 1867 2465 
Q 1813 2653 1697 2750 
Q 1631 2806 1522 2806 
Q 1359 2806 1256 2647 
Q 1072 2369 1072 1884 
L 1072 1775 
L 1922 1775 
z
" transform="scale(0.015625)"/>
       <path id="TimesNewRomanPS-BoldMT-2d" d="M 1978 1147 
L 156 1147 
L 156 1794 
L 1978 1794 
L 1978 1147 
z
" transform="scale(0.015625)"/>
       <path id="TimesNewRomanPS-BoldMT-4c" d="M 4041 1488 
L 3881 0 
L 119 0 
L 119 116 
L 259 116 
Q 444 116 556 181 
Q 638 225 681 331 
Q 716 406 716 725 
L 716 3513 
Q 716 3838 681 3919 
Q 647 4000 542 4061 
Q 438 4122 259 4122 
L 119 4122 
L 119 4238 
L 2378 4238 
L 2378 4122 
L 2194 4122 
Q 2009 4122 1897 4056 
Q 1816 4013 1769 3906 
Q 1734 3831 1734 3513 
L 1734 813 
Q 1734 488 1771 398 
Q 1809 309 1919 266 
Q 1997 238 2297 238 
L 2650 238 
Q 2988 238 3213 356 
Q 3438 475 3602 731 
Q 3766 988 3913 1488 
L 4041 1488 
z
" transform="scale(0.015625)"/>
       <path id="TimesNewRomanPS-BoldMT-76" d="M 1534 -88 
L 550 2178 
Q 372 2588 272 2697 
Q 200 2778 59 2806 
L 59 2922 
L 1613 2922 
L 1613 2806 
Q 1466 2806 1413 2753 
Q 1338 2684 1338 2591 
Q 1338 2475 1475 2156 
L 1956 1059 
L 2341 2006 
Q 2506 2413 2506 2581 
Q 2506 2678 2436 2739 
Q 2366 2800 2188 2806 
L 2188 2922 
L 3144 2922 
L 3144 2806 
Q 3006 2788 2918 2703 
Q 2831 2619 2656 2206 
L 1681 -88 
L 1534 -88 
z
" transform="scale(0.015625)"/>
       <path id="TimesNewRomanPS-BoldMT-6c" d="M 1359 4238 
L 1359 606 
Q 1359 297 1431 211 
Q 1503 125 1713 113 
L 1713 0 
L 134 0 
L 134 113 
Q 328 119 422 225 
Q 484 297 484 606 
L 484 3631 
Q 484 3938 412 4023 
Q 341 4109 134 4122 
L 134 4238 
L 1359 4238 
z
" transform="scale(0.015625)"/>
       <path id="TimesNewRomanPS-BoldMT-20" transform="scale(0.015625)"/>
       <path id="TimesNewRomanPS-BoldMT-48" d="M 1750 2038 
L 1750 725 
Q 1750 400 1786 319 
Q 1822 238 1926 177 
Q 2031 116 2209 116 
L 2350 116 
L 2350 0 
L 134 0 
L 134 116 
L 275 116 
Q 459 116 572 181 
Q 653 225 697 331 
Q 731 406 731 725 
L 731 3513 
Q 731 3838 697 3919 
Q 663 4000 558 4061 
Q 453 4122 275 4122 
L 134 4122 
L 134 4238 
L 2350 4238 
L 2350 4122 
L 2209 4122 
Q 2025 4122 1913 4056 
Q 1831 4013 1784 3906 
Q 1750 3831 1750 3513 
L 1750 2313 
L 3247 2313 
L 3247 3513 
Q 3247 3838 3212 3919 
Q 3178 4000 3072 4061 
Q 2966 4122 2788 4122 
L 2650 4122 
L 2650 4238 
L 4863 4238 
L 4863 4122 
L 4725 4122 
Q 4538 4122 4428 4056 
Q 4347 4013 4300 3906 
Q 4266 3831 4266 3513 
L 4266 725 
Q 4266 400 4300 319 
Q 4334 238 4440 177 
Q 4547 116 4725 116 
L 4863 116 
L 4863 0 
L 2650 0 
L 2650 116 
L 2788 116 
Q 2975 116 3084 181 
Q 3166 225 3213 331 
Q 3247 406 3247 725 
L 3247 2038 
L 1750 2038 
z
" transform="scale(0.015625)"/>
       <path id="TimesNewRomanPS-BoldMT-6d" d="M 1428 2922 
L 1428 2538 
Q 1669 2800 1873 2904 
Q 2078 3009 2322 3009 
Q 2603 3009 2793 2878 
Q 2984 2747 3088 2478 
Q 3338 2759 3567 2884 
Q 3797 3009 4047 3009 
Q 4350 3009 4529 2870 
Q 4709 2731 4779 2517 
Q 4850 2303 4850 1834 
L 4850 638 
Q 4850 300 4911 219 
Q 4972 138 5166 113 
L 5166 0 
L 3656 0 
L 3656 113 
Q 3834 128 3919 250 
Q 3975 334 3975 638 
L 3975 1894 
Q 3975 2284 3944 2390 
Q 3913 2497 3845 2548 
Q 3778 2600 3688 2600 
Q 3553 2600 3415 2501 
Q 3278 2403 3138 2206 
L 3138 638 
Q 3138 322 3191 241 
Q 3263 125 3466 113 
L 3466 0 
L 1953 0 
L 1953 113 
Q 2075 119 2145 173 
Q 2216 228 2239 304 
Q 2263 381 2263 638 
L 2263 1894 
Q 2263 2291 2231 2391 
Q 2200 2491 2126 2547 
Q 2053 2603 1969 2603 
Q 1844 2603 1741 2538 
Q 1594 2441 1428 2206 
L 1428 638 
Q 1428 328 1489 229 
Q 1550 131 1744 113 
L 1744 0 
L 238 0 
L 238 113 
Q 422 131 500 231 
Q 553 300 553 638 
L 553 2288 
Q 553 2619 492 2700 
Q 431 2781 238 2806 
L 238 2922 
L 1428 2922 
z
" transform="scale(0.015625)"/>
       <path id="TimesNewRomanPS-BoldMT-70" d="M 1347 297 
L 1347 -791 
Q 1347 -1016 1383 -1097 
Q 1419 -1178 1494 -1215 
Q 1569 -1253 1788 -1253 
L 1788 -1369 
L 122 -1369 
L 122 -1253 
Q 316 -1247 409 -1144 
Q 472 -1072 472 -772 
L 472 2313 
Q 472 2622 400 2708 
Q 328 2794 122 2806 
L 122 2922 
L 1347 2922 
L 1347 2538 
Q 1500 2763 1659 2863 
Q 1888 3009 2156 3009 
Q 2478 3009 2742 2806 
Q 3006 2603 3143 2245 
Q 3281 1888 3281 1475 
Q 3281 1031 3139 664 
Q 2997 297 2726 104 
Q 2456 -88 2125 -88 
Q 1884 -88 1675 19 
Q 1519 100 1347 297 
z
M 1347 613 
Q 1616 231 1922 231 
Q 2091 231 2200 409 
Q 2363 672 2363 1409 
Q 2363 2166 2184 2444 
Q 2066 2628 1866 2628 
Q 1550 2628 1347 2172 
L 1347 613 
z
" transform="scale(0.015625)"/>
       <path id="TimesNewRomanPS-BoldMT-68" d="M 1409 4238 
L 1409 2547 
Q 1650 2800 1850 2904 
Q 2050 3009 2266 3009 
Q 2541 3009 2736 2853 
Q 2931 2697 2995 2486 
Q 3059 2275 3059 1775 
L 3059 634 
Q 3059 300 3121 217 
Q 3184 134 3375 113 
L 3375 0 
L 1894 0 
L 1894 113 
Q 2050 134 2128 238 
Q 2184 319 2184 634 
L 2184 1938 
Q 2184 2300 2156 2392 
Q 2128 2484 2061 2536 
Q 1994 2588 1909 2588 
Q 1784 2588 1665 2502 
Q 1547 2416 1409 2200 
L 1409 634 
Q 1409 322 1456 244 
Q 1516 138 1700 113 
L 1700 0 
L 219 0 
L 219 113 
Q 403 131 481 231 
Q 534 300 534 634 
L 534 3603 
Q 534 3934 473 4015 
Q 413 4097 219 4122 
L 219 4238 
L 1409 4238 
z
" transform="scale(0.015625)"/>
       <path id="TimesNewRomanPS-BoldMT-69" d="M 919 4338 
Q 1122 4338 1262 4195 
Q 1403 4053 1403 3853 
Q 1403 3653 1261 3512 
Q 1119 3372 919 3372 
Q 719 3372 578 3512 
Q 438 3653 438 3853 
Q 438 4053 578 4195 
Q 719 4338 919 4338 
z
M 1356 2922 
L 1356 606 
Q 1356 297 1428 211 
Q 1500 125 1709 113 
L 1709 0 
L 131 0 
L 131 113 
Q 325 119 419 225 
Q 481 297 481 606 
L 481 2313 
Q 481 2622 409 2708 
Q 338 2794 131 2806 
L 131 2922 
L 1356 2922 
z
" transform="scale(0.015625)"/>
       <path id="TimesNewRomanPS-BoldMT-79" d="M 1556 -119 
L 613 2047 
Q 400 2538 298 2650 
Q 197 2763 53 2806 
L 53 2922 
L 1606 2922 
L 1606 2806 
Q 1453 2800 1390 2747 
Q 1328 2694 1328 2619 
Q 1328 2500 1484 2150 
L 1984 1006 
L 2325 1891 
Q 2509 2363 2509 2547 
Q 2509 2663 2432 2731 
Q 2356 2800 2163 2806 
L 2163 2922 
L 3141 2922 
L 3141 2806 
Q 2997 2791 2906 2695 
Q 2816 2600 2603 2047 
L 1769 -119 
Q 1453 -931 1300 -1119 
Q 1084 -1381 759 -1381 
Q 500 -1381 339 -1232 
Q 178 -1084 178 -875 
Q 178 -694 289 -575 
Q 400 -456 563 -456 
Q 719 -456 814 -556 
Q 909 -656 913 -866 
Q 916 -984 941 -1019 
Q 966 -1053 1013 -1053 
Q 1088 -1053 1172 -963 
Q 1297 -831 1466 -363 
L 1556 -119 
z
" transform="scale(0.015625)"/>
       <path id="TimesNewRomanPS-BoldMT-52" d="M 1700 1931 
L 1700 744 
Q 1700 400 1742 311 
Q 1784 222 1890 169 
Q 1997 116 2288 116 
L 2288 0 
L 119 0 
L 119 116 
Q 413 116 517 170 
Q 622 225 664 312 
Q 706 400 706 744 
L 706 3494 
Q 706 3838 664 3927 
Q 622 4016 515 4069 
Q 409 4122 119 4122 
L 119 4238 
L 2088 4238 
Q 2856 4238 3212 4131 
Q 3569 4025 3794 3739 
Q 4019 3453 4019 3069 
Q 4019 2600 3681 2294 
Q 3466 2100 3078 2003 
L 4097 569 
Q 4297 291 4381 222 
Q 4509 125 4678 116 
L 4678 0 
L 3344 0 
L 1978 1931 
L 1700 1931 
z
M 1700 4009 
L 1700 2153 
L 1878 2153 
Q 2313 2153 2528 2233 
Q 2744 2313 2867 2520 
Q 2991 2728 2991 3063 
Q 2991 3547 2764 3778 
Q 2538 4009 2034 4009 
L 1700 4009 
z
" transform="scale(0.015625)"/>
       <path id="TimesNewRomanPS-BoldMT-61" d="M 1828 431 
Q 1294 -41 869 -41 
Q 619 -41 453 123 
Q 288 288 288 534 
Q 288 869 575 1136 
Q 863 1403 1828 1847 
L 1828 2141 
Q 1828 2472 1792 2558 
Q 1756 2644 1656 2708 
Q 1556 2772 1431 2772 
Q 1228 2772 1097 2681 
Q 1016 2625 1016 2550 
Q 1016 2484 1103 2388 
Q 1222 2253 1222 2128 
Q 1222 1975 1108 1867 
Q 994 1759 809 1759 
Q 613 1759 480 1878 
Q 347 1997 347 2156 
Q 347 2381 525 2586 
Q 703 2791 1022 2900 
Q 1341 3009 1684 3009 
Q 2100 3009 2342 2832 
Q 2584 2656 2656 2450 
Q 2700 2319 2700 1847 
L 2700 713 
Q 2700 513 2715 461 
Q 2731 409 2762 384 
Q 2794 359 2834 359 
Q 2916 359 3000 475 
L 3094 400 
Q 2938 169 2770 64 
Q 2603 -41 2391 -41 
Q 2141 -41 2000 76 
Q 1859 194 1828 431 
z
M 1828 659 
L 1828 1638 
Q 1450 1416 1266 1163 
Q 1144 994 1144 822 
Q 1144 678 1247 569 
Q 1325 484 1466 484 
Q 1622 484 1828 659 
z
" transform="scale(0.015625)"/>
       <path id="TimesNewRomanPS-BoldMT-74" d="M 1375 3991 
L 1375 2922 
L 2069 2922 
L 2069 2613 
L 1375 2613 
L 1375 809 
Q 1375 556 1398 482 
Q 1422 409 1481 364 
Q 1541 319 1591 319 
Q 1794 319 1975 628 
L 2069 559 
Q 1816 -41 1247 -41 
Q 969 -41 776 114 
Q 584 269 531 459 
Q 500 566 500 1034 
L 500 2613 
L 119 2613 
L 119 2722 
Q 513 3000 789 3306 
Q 1066 3613 1272 3991 
L 1375 3991 
z
" transform="scale(0.015625)"/>
      </defs>
      <use xlink:href="#TimesNewRomanPS-BoldMT-4e"/>
      <use xlink:href="#TimesNewRomanPS-BoldMT-6f" x="72.216797"/>
      <use xlink:href="#TimesNewRomanPS-BoldMT-64" x="122.216797"/>
      <use xlink:href="#TimesNewRomanPS-BoldMT-65" x="177.832031"/>
      <use xlink:href="#TimesNewRomanPS-BoldMT-2d" x="222.216797"/>
      <use xlink:href="#TimesNewRomanPS-BoldMT-4c" x="255.517578"/>
      <use xlink:href="#TimesNewRomanPS-BoldMT-65" x="322.216797"/>
      <use xlink:href="#TimesNewRomanPS-BoldMT-76" x="366.601562"/>
      <use xlink:href="#TimesNewRomanPS-BoldMT-65" x="416.601562"/>
      <use xlink:href="#TimesNewRomanPS-BoldMT-6c" x="460.986328"/>
      <use xlink:href="#TimesNewRomanPS-BoldMT-20" x="488.769531"/>
      <use xlink:href="#TimesNewRomanPS-BoldMT-48" x="513.769531"/>
      <use xlink:href="#TimesNewRomanPS-BoldMT-6f" x="591.552734"/>
      <use xlink:href="#TimesNewRomanPS-BoldMT-6d" x="641.552734"/>
      <use xlink:href="#TimesNewRomanPS-BoldMT-6f" x="724.853516"/>
      <use xlink:href="#TimesNewRomanPS-BoldMT-70" x="774.853516"/>
      <use xlink:href="#TimesNewRomanPS-BoldMT-68" x="830.46875"/>
      <use xlink:href="#TimesNewRomanPS-BoldMT-69" x="886.083984"/>
      <use xlink:href="#TimesNewRomanPS-BoldMT-6c" x="913.867188"/>
      <use xlink:href="#TimesNewRomanPS-BoldMT-79" x="941.650391"/>
      <use xlink:href="#TimesNewRomanPS-BoldMT-20" x="991.650391"/>
      <use xlink:href="#TimesNewRomanPS-BoldMT-52" x="1016.650391"/>
      <use xlink:href="#TimesNewRomanPS-BoldMT-61" x="1088.867188"/>
      <use xlink:href="#TimesNewRomanPS-BoldMT-74" x="1138.867188"/>
      <use xlink:href="#TimesNewRomanPS-BoldMT-69" x="1172.167969"/>
      <use xlink:href="#TimesNewRomanPS-BoldMT-6f" x="1199.951172"/>
     </g>
    </g>
   </g>
   <g id="matplotlib.axis_2">
    <g id="ytick_1">
     <g id="line2d_7">
      <defs>
       <path id="m3a2ad2448f" d="M 0 0 
L -3.5 0 
" style="stroke: #000000; stroke-width: 0.8"/>
      </defs>
      <g>
       <use xlink:href="#m3a2ad2448f" x="90" y="448.56" style="stroke: #000000; stroke-width: 0.8"/>
      </g>
     </g>
     <g id="text_8">
      <!-- 0.0 -->
      <g transform="translate(64.25 453.526406) scale(0.15 -0.15)">
       <use xlink:href="#TimesNewRomanPS-BoldMT-30"/>
       <use xlink:href="#TimesNewRomanPS-BoldMT-2e" x="50"/>
       <use xlink:href="#TimesNewRomanPS-BoldMT-30" x="75"/>
      </g>
     </g>
    </g>
    <g id="ytick_2">
     <g id="line2d_8">
      <g>
       <use xlink:href="#m3a2ad2448f" x="90" y="388.382209" style="stroke: #000000; stroke-width: 0.8"/>
      </g>
     </g>
     <g id="text_9">
      <!-- 0.5 -->
      <g transform="translate(64.25 393.348616) scale(0.15 -0.15)">
       <defs>
        <path id="TimesNewRomanPS-BoldMT-35" d="M 975 4238 
L 2959 4238 
L 2644 3431 
L 975 3431 
L 816 3009 
Q 1894 2969 2475 2472 
Q 2953 2063 2953 1453 
Q 2953 1063 2731 689 
Q 2509 316 2106 114 
Q 1703 -88 1222 -88 
Q 703 -88 425 106 
Q 231 244 231 419 
Q 231 553 332 656 
Q 434 759 569 759 
Q 691 759 816 709 
Q 941 659 1244 447 
Q 1434 316 1572 266 
Q 1669 228 1791 228 
Q 2047 228 2226 415 
Q 2406 603 2406 866 
Q 2406 1416 1856 1759 
Q 1306 2103 469 2103 
Q 384 2103 216 2100 
L 975 4238 
z
" transform="scale(0.015625)"/>
       </defs>
       <use xlink:href="#TimesNewRomanPS-BoldMT-30"/>
       <use xlink:href="#TimesNewRomanPS-BoldMT-2e" x="50"/>
       <use xlink:href="#TimesNewRomanPS-BoldMT-35" x="75"/>
      </g>
     </g>
    </g>
    <g id="ytick_3">
     <g id="line2d_9">
      <g>
       <use xlink:href="#m3a2ad2448f" x="90" y="328.204419" style="stroke: #000000; stroke-width: 0.8"/>
      </g>
     </g>
     <g id="text_10">
      <!-- 1.0 -->
      <g transform="translate(64.25 333.170825) scale(0.15 -0.15)">
       <use xlink:href="#TimesNewRomanPS-BoldMT-31"/>
       <use xlink:href="#TimesNewRomanPS-BoldMT-2e" x="50"/>
       <use xlink:href="#TimesNewRomanPS-BoldMT-30" x="75"/>
      </g>
     </g>
    </g>
    <g id="ytick_4">
     <g id="line2d_10">
      <g>
       <use xlink:href="#m3a2ad2448f" x="90" y="268.026628" style="stroke: #000000; stroke-width: 0.8"/>
      </g>
     </g>
     <g id="text_11">
      <!-- 1.5 -->
      <g transform="translate(64.25 272.993034) scale(0.15 -0.15)">
       <use xlink:href="#TimesNewRomanPS-BoldMT-31"/>
       <use xlink:href="#TimesNewRomanPS-BoldMT-2e" x="50"/>
       <use xlink:href="#TimesNewRomanPS-BoldMT-35" x="75"/>
      </g>
     </g>
    </g>
    <g id="ytick_5">
     <g id="line2d_11">
      <g>
       <use xlink:href="#m3a2ad2448f" x="90" y="207.848837" style="stroke: #000000; stroke-width: 0.8"/>
      </g>
     </g>
     <g id="text_12">
      <!-- 2.0 -->
      <g transform="translate(64.25 212.815244) scale(0.15 -0.15)">
       <use xlink:href="#TimesNewRomanPS-BoldMT-32"/>
       <use xlink:href="#TimesNewRomanPS-BoldMT-2e" x="50"/>
       <use xlink:href="#TimesNewRomanPS-BoldMT-30" x="75"/>
      </g>
     </g>
    </g>
    <g id="ytick_6">
     <g id="line2d_12">
      <g>
       <use xlink:href="#m3a2ad2448f" x="90" y="147.671047" style="stroke: #000000; stroke-width: 0.8"/>
      </g>
     </g>
     <g id="text_13">
      <!-- 2.5 -->
      <g transform="translate(64.25 152.637453) scale(0.15 -0.15)">
       <use xlink:href="#TimesNewRomanPS-BoldMT-32"/>
       <use xlink:href="#TimesNewRomanPS-BoldMT-2e" x="50"/>
       <use xlink:href="#TimesNewRomanPS-BoldMT-35" x="75"/>
      </g>
     </g>
    </g>
    <g id="ytick_7">
     <g id="line2d_13">
      <g>
       <use xlink:href="#m3a2ad2448f" x="90" y="87.493256" style="stroke: #000000; stroke-width: 0.8"/>
      </g>
     </g>
     <g id="text_14">
      <!-- 3.0 -->
      <g transform="translate(64.25 92.459662) scale(0.15 -0.15)">
       <defs>
        <path id="TimesNewRomanPS-BoldMT-33" d="M 947 2125 
L 947 2234 
Q 1303 2338 1440 2427 
Q 1578 2516 1678 2698 
Q 1778 2881 1778 3069 
Q 1778 3328 1589 3514 
Q 1400 3700 1119 3700 
Q 681 3700 375 3238 
L 259 3278 
Q 484 3800 836 4062 
Q 1188 4325 1619 4325 
Q 2059 4325 2345 4056 
Q 2631 3788 2631 3428 
Q 2631 3194 2498 2976 
Q 2366 2759 2081 2594 
Q 2447 2416 2639 2155 
Q 2831 1894 2831 1500 
Q 2831 838 2351 373 
Q 1872 -91 1066 -91 
Q 528 -91 281 88 
Q 103 213 103 409 
Q 103 553 206 654 
Q 309 756 444 756 
Q 547 756 638 713 
Q 688 688 992 439 
Q 1297 191 1563 191 
Q 1794 191 1959 373 
Q 2125 556 2125 838 
Q 2125 1266 1825 1627 
Q 1525 1988 947 2125 
z
" transform="scale(0.015625)"/>
       </defs>
       <use xlink:href="#TimesNewRomanPS-BoldMT-33"/>
       <use xlink:href="#TimesNewRomanPS-BoldMT-2e" x="50"/>
       <use xlink:href="#TimesNewRomanPS-BoldMT-30" x="75"/>
      </g>
     </g>
    </g>
    <g id="text_15">
     <!-- Density -->
     <g transform="translate(55.934375 286.741875) rotate(-90) scale(0.2 -0.2)">
      <defs>
       <path id="TimesNewRomanPS-BoldMT-44" d="M 84 0 
L 84 116 
L 225 116 
Q 409 116 507 173 
Q 606 231 653 331 
Q 681 397 681 725 
L 681 3513 
Q 681 3838 647 3919 
Q 613 4000 508 4061 
Q 403 4122 225 4122 
L 84 4122 
L 84 4238 
L 1981 4238 
Q 2741 4238 3203 4031 
Q 3769 3778 4061 3265 
Q 4353 2753 4353 2106 
Q 4353 1659 4209 1282 
Q 4066 906 3837 661 
Q 3609 416 3311 267 
Q 3013 119 2581 38 
Q 2391 0 1981 0 
L 84 0 
z
M 1700 3997 
L 1700 691 
Q 1700 428 1725 368 
Q 1750 309 1809 278 
Q 1894 231 2053 231 
Q 2575 231 2850 588 
Q 3225 1069 3225 2081 
Q 3225 2897 2969 3384 
Q 2766 3766 2447 3903 
Q 2222 4000 1700 3997 
z
" transform="scale(0.015625)"/>
       <path id="TimesNewRomanPS-BoldMT-6e" d="M 1409 2922 
L 1409 2544 
Q 1634 2788 1840 2898 
Q 2047 3009 2284 3009 
Q 2569 3009 2756 2851 
Q 2944 2694 3006 2459 
Q 3056 2281 3056 1775 
L 3056 638 
Q 3056 300 3117 217 
Q 3178 134 3372 113 
L 3372 0 
L 1894 0 
L 1894 113 
Q 2059 134 2131 250 
Q 2181 328 2181 638 
L 2181 1938 
Q 2181 2297 2153 2390 
Q 2125 2484 2058 2536 
Q 1991 2588 1909 2588 
Q 1641 2588 1409 2203 
L 1409 638 
Q 1409 309 1470 221 
Q 1531 134 1697 113 
L 1697 0 
L 219 0 
L 219 113 
Q 403 131 481 231 
Q 534 300 534 638 
L 534 2288 
Q 534 2619 473 2700 
Q 413 2781 219 2806 
L 219 2922 
L 1409 2922 
z
" transform="scale(0.015625)"/>
       <path id="TimesNewRomanPS-BoldMT-73" d="M 2063 3003 
L 2109 2006 
L 2003 2006 
Q 1813 2450 1608 2612 
Q 1403 2775 1200 2775 
Q 1072 2775 981 2689 
Q 891 2603 891 2491 
Q 891 2406 953 2328 
Q 1053 2200 1512 1889 
Q 1972 1578 2117 1361 
Q 2263 1144 2263 875 
Q 2263 631 2141 397 
Q 2019 163 1797 37 
Q 1575 -88 1306 -88 
Q 1097 -88 747 44 
Q 653 78 619 78 
Q 516 78 447 -78 
L 344 -78 
L 294 972 
L 400 972 
Q 541 559 786 353 
Q 1031 147 1250 147 
Q 1400 147 1495 239 
Q 1591 331 1591 463 
Q 1591 613 1497 722 
Q 1403 831 1078 1053 
Q 600 1384 459 1559 
Q 253 1816 253 2125 
Q 253 2463 486 2736 
Q 719 3009 1159 3009 
Q 1397 3009 1619 2894 
Q 1703 2847 1756 2847 
Q 1813 2847 1847 2870 
Q 1881 2894 1956 3003 
L 2063 3003 
z
" transform="scale(0.015625)"/>
      </defs>
      <use xlink:href="#TimesNewRomanPS-BoldMT-44"/>
      <use xlink:href="#TimesNewRomanPS-BoldMT-65" x="72.216797"/>
      <use xlink:href="#TimesNewRomanPS-BoldMT-6e" x="116.601562"/>
      <use xlink:href="#TimesNewRomanPS-BoldMT-73" x="172.216797"/>
      <use xlink:href="#TimesNewRomanPS-BoldMT-69" x="211.132812"/>
      <use xlink:href="#TimesNewRomanPS-BoldMT-74" x="238.916016"/>
      <use xlink:href="#TimesNewRomanPS-BoldMT-79" x="272.216797"/>
     </g>
    </g>
   </g>
   <g id="patch_3">
    <path d="M 90 448.56 
L 90 60.48 
" style="fill: none; stroke: #000000; stroke-width: 0.8; stroke-linejoin: miter; stroke-linecap: square"/>
   </g>
   <g id="patch_4">
    <path d="M 648 448.56 
L 648 60.48 
" style="fill: none; stroke: #000000; stroke-width: 0.8; stroke-linejoin: miter; stroke-linecap: square"/>
   </g>
   <g id="patch_5">
    <path d="M 90 448.56 
L 648 448.56 
" style="fill: none; stroke: #000000; stroke-width: 0.8; stroke-linejoin: miter; stroke-linecap: square"/>
   </g>
   <g id="patch_6">
    <path d="M 90 60.48 
L 648 60.48 
" style="fill: none; stroke: #000000; stroke-width: 0.8; stroke-linejoin: miter; stroke-linecap: square"/>
   </g>
   <g id="text_16">
    <!-- Density of Homophily Ratio (1D) -->
    <g transform="translate(193.314453 54.48) scale(0.25 -0.25)">
     <defs>
      <path id="TimesNewRomanPS-BoldMT-66" d="M 1497 2616 
L 1497 588 
Q 1497 294 1559 219 
Q 1659 103 1928 113 
L 1928 0 
L 206 0 
L 206 113 
Q 403 116 486 158 
Q 569 200 600 275 
Q 631 350 631 588 
L 631 2616 
L 206 2616 
L 206 2922 
L 631 2922 
L 631 3138 
L 628 3284 
Q 628 3734 958 4034 
Q 1288 4334 1850 4334 
Q 2234 4334 2420 4190 
Q 2606 4047 2606 3872 
Q 2606 3731 2490 3628 
Q 2375 3525 2184 3525 
Q 2022 3525 1926 3609 
Q 1831 3694 1831 3797 
Q 1831 3825 1850 3913 
Q 1863 3966 1863 4013 
Q 1863 4078 1825 4109 
Q 1775 4156 1703 4156 
Q 1613 4156 1552 4081 
Q 1491 4006 1491 3841 
L 1497 3294 
L 1497 2922 
L 1928 2922 
L 1928 2616 
L 1497 2616 
z
" transform="scale(0.015625)"/>
      <path id="TimesNewRomanPS-BoldMT-28" d="M 2056 4334 
L 2056 4191 
Q 1731 3978 1578 3775 
Q 1366 3494 1247 3053 
Q 1097 2506 1097 1525 
Q 1097 600 1233 87 
Q 1369 -425 1603 -741 
Q 1766 -959 2056 -1125 
L 2056 -1281 
Q 1303 -1028 779 -248 
Q 256 531 256 1544 
Q 256 2544 778 3314 
Q 1300 4084 2056 4334 
z
" transform="scale(0.015625)"/>
      <path id="TimesNewRomanPS-BoldMT-29" d="M 78 -1281 
L 78 -1138 
Q 403 -922 556 -719 
Q 766 -438 888 0 
Q 1038 550 1038 1531 
Q 1038 2456 902 2967 
Q 766 3478 531 3794 
Q 369 4013 78 4178 
L 78 4334 
Q 831 4081 1354 3301 
Q 1878 2522 1878 1509 
Q 1878 513 1354 -257 
Q 831 -1028 78 -1281 
z
" transform="scale(0.015625)"/>
     </defs>
     <use xlink:href="#TimesNewRomanPS-BoldMT-44"/>
     <use xlink:href="#TimesNewRomanPS-BoldMT-65" x="72.216797"/>
     <use xlink:href="#TimesNewRomanPS-BoldMT-6e" x="116.601562"/>
     <use xlink:href="#TimesNewRomanPS-BoldMT-73" x="172.216797"/>
     <use xlink:href="#TimesNewRomanPS-BoldMT-69" x="211.132812"/>
     <use xlink:href="#TimesNewRomanPS-BoldMT-74" x="238.916016"/>
     <use xlink:href="#TimesNewRomanPS-BoldMT-79" x="272.216797"/>
     <use xlink:href="#TimesNewRomanPS-BoldMT-20" x="322.216797"/>
     <use xlink:href="#TimesNewRomanPS-BoldMT-6f" x="347.216797"/>
     <use xlink:href="#TimesNewRomanPS-BoldMT-66" x="397.216797"/>
     <use xlink:href="#TimesNewRomanPS-BoldMT-20" x="430.517578"/>
     <use xlink:href="#TimesNewRomanPS-BoldMT-48" x="455.517578"/>
     <use xlink:href="#TimesNewRomanPS-BoldMT-6f" x="533.300781"/>
     <use xlink:href="#TimesNewRomanPS-BoldMT-6d" x="583.300781"/>
     <use xlink:href="#TimesNewRomanPS-BoldMT-6f" x="666.601562"/>
     <use xlink:href="#TimesNewRomanPS-BoldMT-70" x="716.601562"/>
     <use xlink:href="#TimesNewRomanPS-BoldMT-68" x="772.216797"/>
     <use xlink:href="#TimesNewRomanPS-BoldMT-69" x="827.832031"/>
     <use xlink:href="#TimesNewRomanPS-BoldMT-6c" x="855.615234"/>
     <use xlink:href="#TimesNewRomanPS-BoldMT-79" x="883.398438"/>
     <use xlink:href="#TimesNewRomanPS-BoldMT-20" x="933.398438"/>
     <use xlink:href="#TimesNewRomanPS-BoldMT-52" x="958.398438"/>
     <use xlink:href="#TimesNewRomanPS-BoldMT-61" x="1030.615234"/>
     <use xlink:href="#TimesNewRomanPS-BoldMT-74" x="1080.615234"/>
     <use xlink:href="#TimesNewRomanPS-BoldMT-69" x="1113.916016"/>
     <use xlink:href="#TimesNewRomanPS-BoldMT-6f" x="1141.699219"/>
     <use xlink:href="#TimesNewRomanPS-BoldMT-20" x="1191.699219"/>
     <use xlink:href="#TimesNewRomanPS-BoldMT-28" x="1216.699219"/>
     <use xlink:href="#TimesNewRomanPS-BoldMT-31" x="1250"/>
     <use xlink:href="#TimesNewRomanPS-BoldMT-44" x="1300"/>
     <use xlink:href="#TimesNewRomanPS-BoldMT-29" x="1372.216797"/>
    </g>
   </g>
   <g id="legend_1">
    <g id="patch_7">
     <path d="M 631.5 79.98 
L 637.5 79.98 
Q 640.5 79.98 640.5 76.98 
L 640.5 70.98 
Q 640.5 67.98 637.5 67.98 
L 631.5 67.98 
Q 628.5 67.98 628.5 70.98 
L 628.5 76.98 
Q 628.5 79.98 631.5 79.98 
z
" style="fill: #ffffff; opacity: 0.8; stroke: #cccccc; stroke-linejoin: miter"/>
    </g>
   </g>
  </g>
 </g>
 <defs>
  <clipPath id="pa5ae44e0bb">
   <rect x="90" y="60.48" width="558" height="388.08"/>
  </clipPath>
 </defs>
</svg>
